<svg width="38" height="38" viewBox="0 0 38 38" fill="none" xmlns="http://www.w3.org/2000/svg">
<g clip-path="url(#clip0_1_249)">
<path d="M37.243 34.6584H4.53803L8.66519 30.0482C9.0276 30.2411 9.44048 30.3509 9.87852 30.3509C10.8869 30.3509 11.7623 29.7711 12.1933 28.9266L16.4102 29.9956C16.5218 31.3322 17.6403 32.3857 19.0001 32.3857C20.4335 32.3857 21.5997 31.215 21.5997 29.7759C21.5997 28.9823 21.2447 28.2707 20.6861 27.7917L24.125 19.5404L26.574 25.8099C25.9887 26.2889 25.6139 27.0179 25.6139 27.8333C25.6139 29.2724 26.7802 30.4432 28.2137 30.4432C29.6471 30.4432 30.8133 29.2724 30.8133 27.8333C30.8133 27.5393 30.7639 27.2568 30.6742 26.9929L33.6781 23.977C33.9737 23.6802 33.9737 23.1991 33.6781 22.9022C33.3825 22.6055 32.9032 22.6055 32.6076 22.9022L29.7737 25.7471C29.3389 25.4185 28.7984 25.2234 28.2134 25.2234C28.1331 25.2234 28.0538 25.2276 27.9753 25.2348L24.9641 17.5263L27.9891 10.2683C28.0631 10.2747 28.1377 10.2787 28.2134 10.2787C29.4171 10.2787 30.432 9.45304 30.7265 8.33621H35.4921C35.9101 8.33621 36.249 7.99593 36.249 7.57629C36.249 7.15665 35.9101 6.81636 35.4921 6.81636H30.67C30.3172 5.79468 29.3497 5.05882 28.2134 5.05882C26.78 5.05882 25.6137 6.2296 25.6137 7.66875C25.6137 8.48918 25.9931 9.22191 26.5846 9.70078L24.1702 15.4936L20.6434 6.46475C21.1733 5.98662 21.5073 5.29368 21.5073 4.52369C21.5073 3.08454 20.3411 1.91377 18.9076 1.91377C17.4741 1.91377 16.3081 3.08454 16.3081 4.52369C16.3081 5.1463 16.5267 5.71853 16.8905 6.1676L10.6502 15.6597C10.3797 15.5637 10.089 15.511 9.78626 15.511C9.47566 15.511 9.17774 15.5661 8.90143 15.6669L3.5409 8.58582V0.824134C3.5409 0.404495 3.20202 0.064209 2.78395 0.064209C2.36587 0.064209 2.02691 0.404495 2.02691 0.824134V8.2965H0.756957C0.338883 8.29642 0 8.63678 0 9.05642C0 9.47606 0.338883 9.81635 0.756957 9.81635H2.02699V17.4538H0.756957C0.338883 17.4538 0 17.794 0 18.2137C0 18.6333 0.338883 18.9736 0.756957 18.9736H2.02699V26.7961H0.756957C0.338883 26.7961 0 27.1364 0 27.556C0 27.9757 0.338883 28.3159 0.756957 28.3159H2.02699V35.4183C2.02699 35.8379 2.36587 36.1782 2.78395 36.1782H9.30577V37.1757C9.30577 37.5953 9.64465 37.9356 10.0627 37.9356C10.4808 37.9356 10.8197 37.5953 10.8197 37.1757V36.1782H18.4273V37.1757C18.4273 37.5953 18.7661 37.9356 19.1842 37.9356C19.6023 37.9356 19.9412 37.5953 19.9412 37.1757V36.1782H27.733V37.1757C27.733 37.5953 28.0718 37.9356 28.4899 37.9356C28.908 37.9356 29.2469 37.5953 29.2469 37.1757V36.1782H37.2428C37.6609 36.1782 37.9998 35.8379 37.9998 35.4183C37.9998 34.9986 37.6611 34.6584 37.243 34.6584ZM28.2137 26.7434C28.8123 26.7434 29.2995 27.2324 29.2995 27.8335C29.2995 28.4344 28.8124 28.9235 28.2137 28.9235C27.615 28.9235 27.1279 28.4345 27.1279 27.8335C27.1279 27.2324 27.615 26.7434 28.2137 26.7434ZM28.2137 6.5789C28.8124 6.5789 29.2994 7.06791 29.2994 7.66898C29.2994 8.27005 28.8123 8.75906 28.2137 8.75906C27.6149 8.75906 27.1278 8.27005 27.1278 7.66898C27.1278 7.06791 27.6149 6.5789 28.2137 6.5789ZM9.87852 28.831C9.27979 28.831 8.79277 28.3419 8.79277 27.7409C8.79277 27.1399 9.27987 26.6509 9.87852 26.6509C10.4772 26.6509 10.9643 27.1399 10.9643 27.7409C10.9642 28.342 10.4772 28.831 9.87852 28.831ZM19 30.8659C18.4013 30.8659 17.9143 30.3769 17.9143 29.7759C17.9143 29.1748 18.4014 28.6858 19 28.6858C19.5986 28.6858 20.0857 29.1748 20.0857 29.7759C20.0857 30.3769 19.5987 30.8659 19 30.8659ZM18.9079 3.43399C19.5066 3.43399 19.9937 3.923 19.9937 4.52407C19.9937 5.12514 19.5066 5.61415 18.9079 5.61415C18.3092 5.61415 17.8221 5.12514 17.8221 4.52407C17.8221 3.923 18.3092 3.43399 18.9079 3.43399ZM9.78626 17.0312C10.3851 17.0312 10.8721 17.5201 10.8721 18.1212C10.8721 18.7223 10.385 19.2113 9.78626 19.2113C9.18754 19.2113 8.70052 18.7223 8.70052 18.1212C8.70059 17.5202 9.18769 17.0312 9.78626 17.0312ZM3.54098 11.098L7.69055 16.5794C7.37415 17.0117 7.18668 17.5448 7.18668 18.1211C7.18668 19.5603 8.35288 20.7311 9.78634 20.7311C11.2198 20.7311 12.3861 19.5603 12.3861 18.1211C12.3861 17.5376 12.1943 16.9982 11.8706 16.5631L18.145 7.0191C18.3864 7.09361 18.6425 7.13392 18.9078 7.13392C19.0303 7.13392 19.1507 7.12476 19.2687 7.10822L23.331 17.5078L19.2983 27.1837C19.2003 27.1724 19.1009 27.166 18.9999 27.166C18.0243 27.166 17.1729 27.7085 16.7283 28.5087L12.4585 27.4262C12.3032 26.1351 11.2057 25.1309 9.87837 25.1309C8.44491 25.1309 7.27871 26.3017 7.27871 27.7408C7.27871 28.1875 7.39122 28.6082 7.58909 28.9762L3.54098 33.4982V11.098Z" fill="white"/>
<path d="M36.2579 20.22C35.9622 19.9232 35.4829 19.9232 35.1873 20.22L34.5884 20.8213C34.2928 21.1182 34.2928 21.5993 34.5884 21.8961C34.7362 22.0445 34.9299 22.1187 35.1236 22.1187C35.3174 22.1187 35.5111 22.0445 35.6589 21.8961L36.2579 21.2948C36.5534 20.998 36.5534 20.5169 36.2579 20.22Z" fill="white"/>
</g>
<defs>
<clipPath id="clip0_1_249">
<rect width="38" height="38" fill="white"/>
</clipPath>
</defs>
</svg>
