<svg width="42" height="42" viewBox="0 0 42 42" fill="none" xmlns="http://www.w3.org/2000/svg">
<path d="M20.9998 33.3775C18.5518 33.3775 16.1587 32.6515 14.1233 31.2915C12.0878 29.9314 10.5013 27.9983 9.5645 25.7366C8.62768 23.4749 8.38256 20.9862 8.86015 18.5852C9.33774 16.1842 10.5166 13.9788 12.2476 12.2477C13.9786 10.5167 16.1841 9.33786 18.5851 8.86027C20.9861 8.38268 23.4748 8.6278 25.7365 9.56462C27.9982 10.5014 29.9313 12.0879 31.2914 14.1234C32.6514 16.1588 33.3773 18.5519 33.3773 21C33.3736 24.2815 32.0683 27.4276 29.7479 29.748C27.4275 32.0685 24.2814 33.3737 20.9998 33.3775ZM20.9998 9.75758C18.7763 9.75758 16.6027 10.4169 14.7539 11.6523C12.9051 12.8876 11.4641 14.6434 10.6132 16.6977C9.76232 18.752 9.53968 21.0124 9.97347 23.1932C10.4073 25.374 11.478 27.3772 13.0503 28.9495C14.6225 30.5218 16.6257 31.5925 18.8066 32.0263C20.9874 32.4601 23.2478 32.2375 25.3021 31.3866C27.3564 30.5357 29.1122 29.0947 30.3475 27.2459C31.5829 25.3971 32.2422 23.2235 32.2422 21C32.2388 18.0194 31.0532 15.1618 28.9456 13.0542C26.838 10.9466 23.9804 9.76103 20.9998 9.75758Z" fill="white"/>
<path d="M21 30.4443C19.1321 30.4443 17.3061 29.8904 15.753 28.8527C14.1999 27.8149 12.9894 26.3399 12.2746 24.6142C11.5598 22.8885 11.3727 20.9895 11.7371 19.1575C12.1016 17.3255 13.001 15.6427 14.3218 14.3218C15.6427 13.001 17.3255 12.1016 19.1575 11.7371C20.9895 11.3727 22.8885 11.5598 24.6142 12.2746C26.3399 12.9894 27.8149 14.1999 28.8527 15.753C29.8904 17.3061 30.4443 19.1321 30.4443 21C30.4415 23.5039 29.4455 25.9045 27.675 27.675C25.9045 29.4455 23.5039 30.4415 21 30.4443ZM21 12.6908C19.3566 12.6908 17.7501 13.1781 16.3837 14.0912C15.0172 15.0042 13.9522 16.3019 13.3233 17.8202C12.6944 19.3385 12.5299 21.0092 12.8505 22.621C13.1711 24.2329 13.9624 25.7134 15.1245 26.8755C16.2866 28.0375 17.7671 28.8289 19.379 29.1495C20.9908 29.4701 22.6615 29.3056 24.1798 28.6767C25.6981 28.0478 26.9958 26.9828 27.9088 25.6163C28.8219 24.2499 29.3092 22.6434 29.3092 21C29.3066 18.797 28.4304 16.6851 26.8727 15.1273C25.3149 13.5696 23.203 12.6934 21 12.6908Z" fill="white"/>
<path d="M21.9455 21.1816H19.0588C18.9083 21.1816 18.7639 21.1218 18.6575 21.0154C18.5511 20.9089 18.4913 20.7646 18.4913 20.614V15.9742C18.4913 15.8236 18.5511 15.6793 18.6575 15.5728C18.7639 15.4664 18.9083 15.4066 19.0588 15.4066H21.9455C22.3281 15.4012 22.7079 15.472 23.063 15.6147C23.418 15.7574 23.7411 15.9692 24.0136 16.2379C24.286 16.5065 24.5024 16.8266 24.65 17.1796C24.7977 17.5326 24.8737 17.9115 24.8737 18.2941C24.8737 18.6767 24.7977 19.0556 24.65 19.4085C24.5024 19.7615 24.286 20.0817 24.0136 20.3503C23.7411 20.619 23.418 20.8308 23.063 20.9735C22.7079 21.1162 22.3281 21.187 21.9455 21.1816ZM19.6264 20.0465H21.9455C22.1783 20.0506 22.4095 20.0084 22.6258 19.9222C22.8421 19.8361 23.039 19.7076 23.2051 19.5445C23.3712 19.3814 23.5032 19.1868 23.5932 18.9721C23.6833 18.7574 23.7297 18.5269 23.7297 18.2941C23.7297 18.0613 23.6833 17.8308 23.5932 17.6161C23.5032 17.4014 23.3712 17.2068 23.2051 17.0437C23.039 16.8805 22.8421 16.7521 22.6258 16.666C22.4095 16.5798 22.1783 16.5375 21.9455 16.5417H19.6264V20.0465Z" fill="white"/>
<path d="M22.6828 25.8243H19.0588C18.9083 25.8243 18.7639 25.7645 18.6575 25.6581C18.5511 25.5517 18.4913 25.4073 18.4913 25.2568V20.6141C18.4913 20.4635 18.5511 20.3192 18.6575 20.2127C18.7639 20.1063 18.9083 20.0465 19.0588 20.0465H22.6828C23.4486 20.0465 24.1832 20.3508 24.7247 20.8923C25.2663 21.4339 25.5705 22.1684 25.5705 22.9343C25.5705 23.7002 25.2663 24.4347 24.7247 24.9763C24.1832 25.5178 23.4486 25.8221 22.6828 25.8221V25.8243ZM19.6264 24.6892H22.6828C23.1476 24.6892 23.5934 24.5046 23.9221 24.1759C24.2507 23.8472 24.4354 23.4014 24.4354 22.9366C24.4354 22.4717 24.2507 22.0259 23.9221 21.6973C23.5934 21.3686 23.1476 21.1839 22.6828 21.1839H19.6264V24.6892Z" fill="white"/>
<path d="M19.0588 16.5417H18.2302C18.0796 16.5417 17.9353 16.4819 17.8288 16.3755C17.7224 16.2691 17.6626 16.1247 17.6626 15.9742C17.6626 15.8237 17.7224 15.6793 17.8288 15.5729C17.9353 15.4664 18.0796 15.4066 18.2302 15.4066H19.0588C19.2093 15.4066 19.3537 15.4664 19.4601 15.5729C19.5666 15.6793 19.6264 15.8237 19.6264 15.9742C19.6264 16.1247 19.5666 16.2691 19.4601 16.3755C19.3537 16.4819 19.2093 16.5417 19.0588 16.5417Z" fill="white"/>
<path d="M19.5245 16.5418C19.3739 16.5418 19.2296 16.482 19.1231 16.3755C19.0167 16.2691 18.9569 16.1247 18.9569 15.9742V14.9299C18.9569 14.7793 19.0167 14.635 19.1231 14.5285C19.2296 14.4221 19.3739 14.3623 19.5245 14.3623C19.675 14.3623 19.8194 14.4221 19.9258 14.5285C20.0322 14.635 20.092 14.7793 20.092 14.9299V15.9742C20.092 16.1247 20.0322 16.2691 19.9258 16.3755C19.8194 16.482 19.675 16.5418 19.5245 16.5418Z" fill="white"/>
<path d="M21.3317 16.5418C21.1812 16.5418 21.0368 16.482 20.9304 16.3755C20.824 16.2691 20.7642 16.1247 20.7642 15.9742V14.9299C20.7642 14.7793 20.824 14.635 20.9304 14.5285C21.0368 14.4221 21.1812 14.3623 21.3317 14.3623C21.4823 14.3623 21.6266 14.4221 21.7331 14.5285C21.8395 14.635 21.8993 14.7793 21.8993 14.9299V15.9742C21.8993 16.1247 21.8395 16.2691 21.7331 16.3755C21.6266 16.482 21.4823 16.5418 21.3317 16.5418Z" fill="white"/>
<path d="M19.5245 26.8658C19.3739 26.8658 19.2296 26.806 19.1231 26.6996C19.0167 26.5931 18.9569 26.4488 18.9569 26.2983V25.2568C18.9569 25.1062 19.0167 24.9619 19.1231 24.8554C19.2296 24.749 19.3739 24.6892 19.5245 24.6892C19.675 24.6892 19.8194 24.749 19.9258 24.8554C20.0322 24.9619 20.092 25.1062 20.092 25.2568V26.3005C20.0914 26.4507 20.0314 26.5944 19.925 26.7004C19.8186 26.8063 19.6746 26.8658 19.5245 26.8658Z" fill="white"/>
<path d="M21.3317 26.8658C21.1812 26.8658 21.0368 26.806 20.9304 26.6996C20.824 26.5931 20.7642 26.4488 20.7642 26.2983V25.2568C20.7642 25.1062 20.824 24.9619 20.9304 24.8554C21.0368 24.749 21.1812 24.6892 21.3317 24.6892C21.4823 24.6892 21.6266 24.749 21.7331 24.8554C21.8395 24.9619 21.8993 25.1062 21.8993 25.2568V26.3005C21.8987 26.4507 21.8386 26.5944 21.7323 26.7004C21.6259 26.8063 21.4819 26.8658 21.3317 26.8658Z" fill="white"/>
<path d="M19.0588 25.8244H18.2302C18.0796 25.8244 17.9353 25.7646 17.8288 25.6581C17.7224 25.5517 17.6626 25.4073 17.6626 25.2568C17.6626 25.1063 17.7224 24.9619 17.8288 24.8554C17.9353 24.749 18.0796 24.6892 18.2302 24.6892H19.0588C19.2093 24.6892 19.3537 24.749 19.4601 24.8554C19.5666 24.9619 19.6264 25.1063 19.6264 25.2568C19.6264 25.4073 19.5666 25.5517 19.4601 25.6581C19.3537 25.7646 19.2093 25.8244 19.0588 25.8244Z" fill="white"/>
<path d="M21.0001 9.75758C20.8495 9.75758 20.7052 9.69778 20.5987 9.59134C20.4923 9.4849 20.4325 9.34054 20.4325 9.19001V5.25336C20.4325 5.10283 20.4923 4.95847 20.5987 4.85203C20.7052 4.74559 20.8495 4.68579 21.0001 4.68579C21.1506 4.68579 21.295 4.74559 21.4014 4.85203C21.5078 4.95847 21.5676 5.10283 21.5676 5.25336V9.19001C21.5676 9.34054 21.5078 9.4849 21.4014 9.59134C21.295 9.69778 21.1506 9.75758 21.0001 9.75758Z" fill="white"/>
<path d="M20.9997 5.82097C20.5363 5.82097 20.0834 5.68356 19.6981 5.42612C19.3128 5.16867 19.0125 4.80276 18.8351 4.37465C18.6578 3.94654 18.6114 3.47545 18.7018 3.02097C18.7922 2.56649 19.0154 2.14902 19.343 1.82136C19.6707 1.49369 20.0882 1.27055 20.5426 1.18015C20.9971 1.08975 21.4682 1.13615 21.8963 1.31348C22.3244 1.49081 22.6903 1.7911 22.9478 2.1764C23.2052 2.56169 23.3426 3.01467 23.3426 3.47805C23.3419 4.0992 23.0948 4.6947 22.6556 5.13392C22.2164 5.57314 21.6209 5.82022 20.9997 5.82097ZM20.9997 2.27027C20.7608 2.27027 20.5273 2.3411 20.3287 2.47382C20.1301 2.60653 19.9753 2.79516 19.8839 3.01585C19.7925 3.23655 19.7685 3.47939 19.8151 3.71368C19.8617 3.94797 19.9768 4.16317 20.1457 4.33208C20.3146 4.501 20.5298 4.61603 20.7641 4.66263C20.9984 4.70923 21.2412 4.68531 21.4619 4.5939C21.6826 4.50249 21.8712 4.34768 22.0039 4.14906C22.1367 3.95044 22.2075 3.71693 22.2075 3.47805C22.2072 3.15782 22.0798 2.85079 21.8534 2.62435C21.627 2.39791 21.3199 2.27057 20.9997 2.27027Z" fill="white"/>
<path d="M21.0001 37.3142C20.8495 37.3142 20.7052 37.2544 20.5987 37.1479C20.4923 37.0415 20.4325 36.8971 20.4325 36.7466V32.8099C20.4325 32.6594 20.4923 32.515 20.5987 32.4086C20.7052 32.3022 20.8495 32.2424 21.0001 32.2424C21.1506 32.2424 21.295 32.3022 21.4014 32.4086C21.5078 32.515 21.5676 32.6594 21.5676 32.8099V36.7466C21.5676 36.8971 21.5078 37.0415 21.4014 37.1479C21.295 37.2544 21.1506 37.3142 21.0001 37.3142Z" fill="white"/>
<path d="M20.9997 40.8649C20.5363 40.8649 20.0834 40.7275 19.6981 40.47C19.3128 40.2126 19.0125 39.8467 18.8351 39.4186C18.6578 38.9905 18.6114 38.5194 18.7018 38.0649C18.7922 37.6104 19.0154 37.193 19.343 36.8653C19.6707 36.5376 20.0882 36.3145 20.5426 36.2241C20.9971 36.1337 21.4682 36.1801 21.8963 36.3574C22.3244 36.5348 22.6903 36.835 22.9478 37.2203C23.2052 37.6056 23.3426 38.0586 23.3426 38.522C23.3419 39.1431 23.0948 39.7386 22.6556 40.1778C22.2164 40.6171 21.6209 40.8641 20.9997 40.8649ZM20.9997 37.3142C20.7608 37.3142 20.5273 37.385 20.3287 37.5178C20.1301 37.6505 19.9753 37.8391 19.8839 38.0598C19.7925 38.2805 19.7685 38.5233 19.8151 38.7576C19.8617 38.9919 19.9768 39.2071 20.1457 39.376C20.3146 39.5449 20.5298 39.66 20.7641 39.7066C20.9984 39.7532 21.2412 39.7292 21.4619 39.6378C21.6826 39.5464 21.8712 39.3916 22.0039 39.193C22.1367 38.9944 22.2075 38.7609 22.2075 38.522C22.2072 38.2018 22.0798 37.8947 21.8534 37.6683C21.627 37.4419 21.3199 37.3145 20.9997 37.3142Z" fill="white"/>
<path d="M36.7467 21.5676H32.8101C32.6595 21.5676 32.5152 21.5078 32.4087 21.4013C32.3023 21.2949 32.2425 21.1505 32.2425 21C32.2425 20.8495 32.3023 20.7051 32.4087 20.5987C32.5152 20.4922 32.6595 20.4324 32.8101 20.4324H36.7467C36.8972 20.4324 37.0416 20.4922 37.148 20.5987C37.2545 20.7051 37.3143 20.8495 37.3143 21C37.3143 21.1505 37.2545 21.2949 37.148 21.4013C37.0416 21.5078 36.8972 21.5676 36.7467 21.5676Z" fill="white"/>
<path d="M38.5215 23.3429C38.0581 23.3429 37.6051 23.2055 37.2198 22.948C36.8346 22.6906 36.5343 22.3247 36.3569 21.8965C36.1796 21.4684 36.1332 20.9974 36.2236 20.5429C36.314 20.0884 36.5372 19.6709 36.8648 19.3433C37.1925 19.0156 37.6099 18.7925 38.0644 18.7021C38.5189 18.6117 38.99 18.6581 39.4181 18.8354C39.8462 19.0127 40.2121 19.313 40.4696 19.6983C40.727 20.0836 40.8644 20.5366 40.8644 21C40.8637 21.6211 40.6166 22.2166 40.1774 22.6558C39.7381 23.095 39.1426 23.3421 38.5215 23.3429ZM38.5215 19.7922C38.2826 19.7922 38.0491 19.863 37.8505 19.9957C37.6519 20.1284 37.4971 20.3171 37.4057 20.5378C37.3142 20.7585 37.2903 21.0013 37.3369 21.2356C37.3835 21.4699 37.4986 21.6851 37.6675 21.854C37.8364 22.0229 38.0516 22.1379 38.2859 22.1845C38.5202 22.2311 38.763 22.2072 38.9837 22.1158C39.2044 22.0244 39.393 21.8696 39.5257 21.671C39.6584 21.4723 39.7293 21.2388 39.7293 21C39.729 20.6797 39.6016 20.3727 39.3752 20.1463C39.1488 19.9198 38.8417 19.7925 38.5215 19.7922Z" fill="white"/>
<path d="M9.19013 21.5676H5.25348C5.10295 21.5676 4.95859 21.5078 4.85215 21.4013C4.74571 21.2949 4.68591 21.1505 4.68591 21C4.68591 20.8495 4.74571 20.7051 4.85215 20.5987C4.95859 20.4922 5.10295 20.4324 5.25348 20.4324H9.19013C9.34066 20.4324 9.48502 20.4922 9.59146 20.5987C9.6979 20.7051 9.7577 20.8495 9.7577 21C9.7577 21.1505 9.6979 21.2949 9.59146 21.4013C9.48502 21.5078 9.34066 21.5676 9.19013 21.5676Z" fill="white"/>
<path d="M3.47799 23.3429C3.01461 23.3429 2.56163 23.2055 2.17633 22.948C1.79104 22.6906 1.49075 22.3247 1.31342 21.8965C1.13609 21.4684 1.08969 20.9974 1.18009 20.5429C1.27049 20.0884 1.49363 19.6709 1.8213 19.3433C2.14896 19.0156 2.56643 18.7925 3.02091 18.7021C3.47539 18.6117 3.94648 18.6581 4.37459 18.8354C4.8027 19.0127 5.16861 19.313 5.42606 19.6983C5.6835 20.0836 5.82091 20.5366 5.82091 21C5.82016 21.6211 5.57308 22.2166 5.13386 22.6558C4.69464 23.095 4.09914 23.3421 3.47799 23.3429ZM3.47799 19.7922C3.23911 19.7922 3.0056 19.863 2.80698 19.9957C2.60836 20.1284 2.45356 20.3171 2.36214 20.5378C2.27073 20.7585 2.24681 21.0013 2.29341 21.2356C2.34002 21.4699 2.45505 21.6851 2.62396 21.854C2.79287 22.0229 3.00808 22.1379 3.24236 22.1845C3.47665 22.2311 3.7195 22.2072 3.94019 22.1158C4.16088 22.0244 4.34951 21.8696 4.48223 21.671C4.61494 21.4723 4.68577 21.2388 4.68577 21C4.68547 20.6797 4.55813 20.3727 4.33169 20.1463C4.10525 19.9198 3.79822 19.7925 3.47799 19.7922Z" fill="white"/>
<path d="M11.1812 34.6943H6.64972C6.49919 34.6943 6.35483 34.6345 6.24839 34.5281C6.14195 34.4216 6.08215 34.2773 6.08215 34.1267C6.08215 33.9762 6.14195 33.8319 6.24839 33.7254C6.35483 33.619 6.49919 33.5592 6.64972 33.5592H10.8684L13.1387 29.9177C13.2183 29.7897 13.3455 29.6986 13.4923 29.6645C13.6391 29.6303 13.7934 29.6558 13.9214 29.7355C14.0493 29.8151 14.1404 29.9423 14.1746 30.0891C14.2087 30.2358 14.1832 30.3902 14.1036 30.5181L11.6676 34.427C11.6162 34.5095 11.5445 34.5774 11.4593 34.6242C11.3741 34.671 11.2784 34.6951 11.1812 34.6943Z" fill="white"/>
<path d="M4.87513 36.4696C4.41177 36.4695 3.95884 36.332 3.57363 36.0745C3.18841 35.8169 2.8882 35.451 2.71096 35.0229C2.53372 34.5947 2.4874 34.1237 2.57786 33.6692C2.66833 33.2148 2.89152 32.7974 3.2192 32.4698C3.54689 32.1422 3.96436 31.9191 4.41882 31.8287C4.87329 31.7384 5.34434 31.7848 5.77242 31.9622C6.2005 32.1395 6.56638 32.4398 6.8238 32.8251C7.08122 33.2103 7.21862 33.6633 7.21862 34.1267C7.21801 34.748 6.9709 35.3436 6.53153 35.7829C6.09215 36.2222 5.49642 36.4691 4.87513 36.4696ZM4.87513 32.9189C4.63628 32.919 4.40282 32.9899 4.20427 33.1227C4.00573 33.2555 3.85101 33.4442 3.75969 33.6649C3.66836 33.8856 3.64452 34.1284 3.69119 34.3626C3.73786 34.5969 3.85293 34.812 4.02186 34.9809C4.1908 35.1498 4.40601 35.2647 4.64028 35.3113C4.87455 35.3578 5.11737 35.3339 5.33803 35.2425C5.55869 35.151 5.74728 34.9962 5.87997 34.7976C6.01266 34.599 6.08348 34.3655 6.08348 34.1267C6.08318 33.8063 5.95576 33.4992 5.7292 33.2728C5.50263 33.0463 5.19546 32.919 4.87513 32.9189Z" fill="white"/>
<path d="M13.6217 12.3497C13.5252 12.3498 13.4303 12.3254 13.3458 12.2786C13.2614 12.2318 13.1903 12.1643 13.1393 12.0824L10.869 8.44086H6.64972C6.49919 8.44086 6.35483 8.38106 6.24839 8.27462C6.14195 8.16818 6.08215 8.02382 6.08215 7.87329C6.08215 7.72276 6.14195 7.5784 6.24839 7.47196C6.35483 7.36552 6.49919 7.30573 6.64972 7.30573H11.1812C11.2776 7.30569 11.3724 7.33021 11.4567 7.37698C11.541 7.42376 11.612 7.49123 11.663 7.57305L14.099 11.4819C14.1524 11.5675 14.182 11.6658 14.1848 11.7667C14.1875 11.8675 14.1633 11.9673 14.1147 12.0557C14.0661 12.1441 13.9948 12.2179 13.9081 12.2696C13.8215 12.3213 13.7226 12.3489 13.6217 12.3497Z" fill="white"/>
<path d="M4.87513 10.2162C4.41177 10.2161 3.95884 10.0786 3.57363 9.8211C3.18841 9.56359 2.8882 9.19764 2.71096 8.76952C2.53372 8.3414 2.4874 7.87033 2.57786 7.41589C2.66833 6.96144 2.89152 6.54403 3.2192 6.21642C3.54689 5.88881 3.96436 5.66573 4.41882 5.57537C4.87329 5.48502 5.34434 5.53145 5.77242 5.70879C6.2005 5.88614 6.56638 6.18644 6.8238 6.57172C7.08122 6.957 7.21862 7.40995 7.21862 7.87331C7.21801 8.49461 6.9709 9.09028 6.53153 9.52955C6.09215 9.96881 5.49642 10.2158 4.87513 10.2162ZM4.87513 6.66553C4.63628 6.66564 4.40282 6.73657 4.20427 6.86936C4.00573 7.00214 3.85101 7.19081 3.75969 7.41151C3.66836 7.63221 3.64452 7.87504 3.69119 8.10929C3.73786 8.34354 3.85293 8.55869 4.02186 8.72755C4.1908 8.8964 4.40601 9.01138 4.64028 9.05793C4.87455 9.10449 5.11737 9.08054 5.33803 8.98911C5.55869 8.89768 5.74728 8.74287 5.87997 8.54426C6.01266 8.34566 6.08348 8.11217 6.08348 7.87331C6.08318 7.55298 5.95576 7.24587 5.7292 7.01941C5.50263 6.79296 5.19546 6.66568 4.87513 6.66553Z" fill="white"/>
<path d="M35.3501 34.6943H30.8187C30.7223 34.6943 30.6274 34.6698 30.5431 34.623C30.4588 34.5763 30.3878 34.5088 30.3368 34.427L27.8985 30.5181C27.8189 30.3902 27.7934 30.2358 27.8275 30.0891C27.8617 29.9423 27.9528 29.8151 28.0807 29.7355C28.2087 29.6558 28.363 29.6303 28.5098 29.6645C28.6566 29.6986 28.7838 29.7897 28.8634 29.9176L31.1337 33.5592H35.3524C35.5029 33.5592 35.6473 33.619 35.7537 33.7254C35.8602 33.8318 35.92 33.9762 35.92 34.1267C35.92 34.2772 35.8602 34.4216 35.7537 34.528C35.6473 34.6345 35.5029 34.6943 35.3524 34.6943H35.3501Z" fill="white"/>
<path d="M37.1249 36.4696C36.6615 36.4696 36.2085 36.3322 35.8233 36.0747C35.438 35.8173 35.1377 35.4514 34.9603 35.0233C34.783 34.5952 34.7366 34.1241 34.827 33.6696C34.9174 33.2151 35.1405 32.7976 35.4682 32.47C35.7959 32.1423 36.2133 31.9192 36.6678 31.8288C37.1223 31.7384 37.5934 31.7848 38.0215 31.9621C38.4496 32.1394 38.8155 32.4397 39.073 32.825C39.3304 33.2103 39.4678 33.6633 39.4678 34.1267C39.4671 34.7478 39.22 35.3433 38.7808 35.7825C38.3416 36.2218 37.7461 36.4688 37.1249 36.4696ZM37.1249 32.9189C36.886 32.9189 36.6525 32.9897 36.4539 33.1224C36.2553 33.2551 36.1005 33.4438 36.0091 33.6645C35.9176 33.8852 35.8937 34.128 35.9403 34.3623C35.9869 34.5966 36.102 34.8118 36.2709 34.9807C36.4398 35.1496 36.655 35.2646 36.8893 35.3112C37.1236 35.3578 37.3664 35.3339 37.5871 35.2425C37.8078 35.1511 37.9964 34.9963 38.1291 34.7977C38.2619 34.5991 38.3327 34.3655 38.3327 34.1267C38.3322 33.8065 38.2049 33.4995 37.9784 33.2731C37.752 33.0467 37.4451 32.9193 37.1249 32.9189Z" fill="white"/>
<path d="M28.3786 12.3497C28.2773 12.3496 28.178 12.3225 28.0908 12.2711C28.0035 12.2197 27.9317 12.1459 27.8826 12.0574C27.8335 11.9689 27.8089 11.8688 27.8115 11.7676C27.8141 11.6665 27.8437 11.5678 27.8973 11.4819L30.3333 7.57305C30.3843 7.49123 30.4553 7.42376 30.5396 7.37698C30.6239 7.33021 30.7187 7.30569 30.8151 7.30573H35.3489C35.4994 7.30573 35.6437 7.36552 35.7502 7.47196C35.8566 7.5784 35.9164 7.72276 35.9164 7.87329C35.9164 8.02382 35.8566 8.16818 35.7502 8.27462C35.6437 8.38106 35.4994 8.44086 35.3489 8.44086H31.1318L28.8616 12.0824C28.8105 12.1644 28.7393 12.2319 28.6547 12.2787C28.5702 12.3255 28.4752 12.3499 28.3786 12.3497Z" fill="white"/>
<path d="M37.1249 10.2162C36.6615 10.2162 36.2085 10.0788 35.8233 9.82132C35.438 9.56388 35.1377 9.19796 34.9603 8.76985C34.783 8.34174 34.7366 7.87066 34.827 7.41617C34.9174 6.96169 35.1405 6.54422 35.4682 6.21656C35.7959 5.8889 36.2133 5.66576 36.6678 5.57535C37.1223 5.48495 37.5934 5.53135 38.0215 5.70868C38.4496 5.88601 38.8155 6.18631 39.073 6.5716C39.3304 6.95689 39.4678 7.40987 39.4678 7.87325C39.4669 8.49436 39.2198 9.08977 38.7806 9.52895C38.3414 9.96814 37.746 10.2153 37.1249 10.2162ZM37.1249 6.66547C36.886 6.66547 36.6525 6.73631 36.4539 6.86902C36.2553 7.00173 36.1005 7.19036 36.0091 7.41106C35.9176 7.63175 35.8937 7.87459 35.9403 8.10888C35.9869 8.34317 36.102 8.55837 36.2709 8.72729C36.4398 8.8962 36.655 9.01123 36.8893 9.05783C37.1236 9.10443 37.3664 9.08051 37.5871 8.9891C37.8078 8.89769 37.9964 8.74288 38.1291 8.54426C38.2619 8.34564 38.3327 8.11213 38.3327 7.87325C38.3324 7.55302 38.205 7.24599 37.9786 7.01955C37.7522 6.79312 37.4451 6.66577 37.1249 6.66547Z" fill="white"/>
</svg>
