<svg width="174" height="33" viewBox="0 0 174 33" fill="none" xmlns="http://www.w3.org/2000/svg">
<circle cx="16.1" cy="16.1" r="15.6" fill="url(#paint0_linear_1_460)" fill-opacity="0.05" stroke="url(#paint1_linear_1_460)"/>
<path d="M13.9658 24.5738V16.6216H11.8631V13.7585H13.9658V11.3129C13.9658 9.39123 15.2079 7.62646 18.07 7.62646C19.2287 7.62646 20.0856 7.73755 20.0856 7.73755L20.0181 10.4113C20.0181 10.4113 19.1442 10.4028 18.1906 10.4028C17.1585 10.4028 16.9932 10.8784 16.9932 11.6678V13.7585H20.1001L19.965 16.6216H16.9932V24.5738H13.9658Z" fill="white" fill-opacity="0.8"/>
<circle cx="63.3" cy="16.1" r="15.6" fill="url(#paint2_linear_1_460)" fill-opacity="0.05" stroke="url(#paint3_linear_1_460)"/>
<path d="M71.7737 10.9568C71.1505 11.2256 70.4723 11.4191 69.7737 11.4945C70.499 11.0636 71.0421 10.3828 71.3012 9.57996C70.6206 9.98483 69.875 10.2687 69.0975 10.4191C68.7725 10.0717 68.3795 9.79491 67.9429 9.60604C67.5063 9.41718 67.0355 9.32025 66.5598 9.3213C64.6351 9.3213 63.0872 10.8814 63.0872 12.7959C63.0872 13.0647 63.1198 13.3336 63.1727 13.5923C60.2908 13.4415 57.7205 12.0647 56.0117 9.95675C55.7004 10.4886 55.5372 11.0941 55.5392 11.7103C55.5392 12.9161 56.1522 13.9792 57.0871 14.6045C56.5362 14.5828 55.9982 14.4314 55.5168 14.1625V14.2053C55.5168 15.8937 56.7103 17.2929 58.301 17.6147C58.0023 17.6923 57.6951 17.732 57.3865 17.7329C57.1604 17.7329 56.9466 17.7105 56.7307 17.6799C57.1706 19.0567 58.4517 20.0567 59.9772 20.0893C58.7837 21.0242 57.2887 21.5741 55.6655 21.5741C55.3742 21.5741 55.1054 21.5639 54.8264 21.5313C56.3661 22.5191 58.193 23.0894 60.1605 23.0894C66.5476 23.0894 70.0425 17.798 70.0425 13.2053C70.0425 13.0546 70.0425 12.9039 70.0323 12.7531C70.7085 12.2582 71.3012 11.6452 71.7737 10.9568Z" fill="white" fill-opacity="0.8"/>
<circle cx="110.5" cy="16.1" r="15.6" fill="url(#paint4_linear_1_460)" fill-opacity="0.05" stroke="url(#paint5_linear_1_460)"/>
<path d="M110.074 13.8392C108.596 13.8392 107.39 15.0455 107.39 16.5236C107.39 18.0018 108.596 19.2081 110.074 19.2081C111.553 19.2081 112.759 18.0018 112.759 16.5236C112.759 15.0455 111.553 13.8392 110.074 13.8392ZM118.126 16.5236C118.126 15.412 118.136 14.3104 118.073 13.2008C118.011 11.9119 117.717 10.768 116.774 9.82553C115.83 8.88103 114.688 8.58902 113.399 8.52659C112.288 8.46416 111.186 8.47423 110.076 8.47423C108.965 8.47423 107.863 8.46416 106.754 8.52659C105.465 8.58902 104.321 8.88305 103.378 9.82553C102.434 10.77 102.142 11.9119 102.079 13.2008C102.017 14.3124 102.027 15.414 102.027 16.5236C102.027 17.6333 102.017 18.7369 102.079 19.8465C102.142 21.1354 102.436 22.2792 103.378 23.2217C104.323 24.1662 105.465 24.4582 106.754 24.5207C107.865 24.5831 108.967 24.573 110.076 24.573C111.188 24.573 112.29 24.5831 113.399 24.5207C114.688 24.4582 115.832 24.1642 116.774 23.2217C117.719 22.2772 118.011 21.1354 118.073 19.8465C118.138 18.7369 118.126 17.6353 118.126 16.5236ZM110.074 20.6541C107.789 20.6541 105.944 18.8094 105.944 16.5236C105.944 14.2379 107.789 12.3932 110.074 12.3932C112.36 12.3932 114.205 14.2379 114.205 16.5236C114.205 18.8094 112.36 20.6541 110.074 20.6541ZM114.374 13.1887C113.84 13.1887 113.409 12.7577 113.409 12.224C113.409 11.6904 113.84 11.2594 114.374 11.2594C114.908 11.2594 115.339 11.6904 115.339 12.224C115.339 12.3508 115.314 12.4763 115.266 12.5934C115.217 12.7105 115.146 12.8169 115.056 12.9065C114.967 12.9961 114.86 13.0672 114.743 13.1156C114.626 13.164 114.501 13.1888 114.374 13.1887Z" fill="white" fill-opacity="0.8"/>
<circle cx="157.7" cy="16.1" r="15.6" fill="url(#paint6_linear_1_460)" fill-opacity="0.05" stroke="url(#paint7_linear_1_460)"/>
<path d="M150.921 13.7052C150.921 12.9725 151.049 12.2803 151.302 11.6342C151.543 11.0067 151.901 10.4308 152.357 9.93711C152.813 9.44994 153.334 9.02867 153.906 8.68548C154.492 8.33058 155.127 8.06282 155.791 7.89062C156.463 7.71425 157.154 7.6253 157.849 7.62598C158.922 7.62598 159.92 7.85295 160.846 8.30501C161.759 8.74882 162.537 9.42991 163.098 10.2771C163.676 11.1388 163.963 12.1136 163.963 13.2004C163.963 13.8521 163.899 14.4897 163.768 15.1131C163.64 15.7363 163.435 16.3413 163.16 16.9148C162.897 17.4699 162.554 17.9831 162.141 18.4376C161.726 18.8849 161.223 19.2421 160.664 19.4868C160.057 19.7527 159.401 19.8866 158.738 19.8795C158.277 19.8795 157.818 19.7712 157.364 19.5536C156.91 19.337 156.584 19.0394 156.388 18.658C156.319 18.9227 156.225 19.305 156.1 19.8051C155.98 20.3042 155.899 20.6263 155.863 20.7723C155.825 20.9173 155.755 21.1594 155.654 21.4947C155.585 21.7427 155.496 21.9848 155.389 22.2189L155.065 22.8537C154.925 23.126 154.768 23.3896 154.596 23.6429C154.426 23.8896 154.215 24.1844 153.963 24.5234L153.823 24.5733L153.73 24.4716C153.629 23.4046 153.577 22.7661 153.577 22.5551C153.577 21.9307 153.651 21.23 153.798 20.4521C153.942 19.6751 154.17 18.6985 154.476 17.5241C154.783 16.3506 154.958 15.6603 155.005 15.456C154.789 15.0161 154.68 14.4417 154.68 13.7353C154.68 13.1712 154.856 12.6429 155.209 12.1456C155.563 11.6502 156.011 11.4025 156.553 11.4025C156.968 11.4025 157.29 11.54 157.521 11.816C157.753 12.091 157.866 12.4375 157.866 12.8604C157.866 13.3087 157.717 13.9576 157.418 14.8061C157.118 15.6556 156.969 16.2894 156.969 16.7104C156.969 17.137 157.122 17.494 157.427 17.7737C157.728 18.0535 158.126 18.2052 158.537 18.1965C158.91 18.1965 159.256 18.1118 159.577 17.9413C159.893 17.7759 160.167 17.5396 160.377 17.251C160.834 16.624 161.159 15.9113 161.334 15.1555C161.425 14.7581 161.495 14.3804 161.538 14.0254C161.584 13.6685 161.604 13.3313 161.604 13.0111C161.604 11.8367 161.231 10.9213 160.49 10.2658C159.745 9.61031 158.775 9.28446 157.581 9.28446C156.224 9.28446 155.09 9.72333 154.181 10.6039C153.271 11.4816 152.813 12.5976 152.813 13.951C152.813 14.2495 152.858 14.5377 152.944 14.8165C153.028 15.0943 153.119 15.3156 153.218 15.4795C153.316 15.6405 153.408 15.7978 153.492 15.9429C153.577 16.0879 153.621 16.1915 153.621 16.2536C153.621 16.4439 153.571 16.6916 153.471 16.9977C153.366 17.3037 153.243 17.4563 153.094 17.4563C153.08 17.4563 153.021 17.4459 152.92 17.4243C152.567 17.3191 152.249 17.1225 151.998 16.8545C151.731 16.5767 151.52 16.2499 151.377 15.892C151.235 15.5354 151.124 15.167 151.046 14.7911C150.961 14.4353 150.919 14.0708 150.921 13.7052Z" fill="white" fill-opacity="0.8"/>
<defs>
<linearGradient id="paint0_linear_1_460" x1="16.1" y1="0" x2="16.1" y2="32.2" gradientUnits="userSpaceOnUse">
<stop stop-color="#FEFEFF" stop-opacity="0.29"/>
<stop offset="1" stop-color="white" stop-opacity="0.4"/>
</linearGradient>
<linearGradient id="paint1_linear_1_460" x1="-1.54448" y1="2.15937" x2="35.5021" y2="6.78831" gradientUnits="userSpaceOnUse">
<stop stop-color="white" stop-opacity="0.08"/>
<stop offset="1" stop-color="white" stop-opacity="0.07"/>
</linearGradient>
<linearGradient id="paint2_linear_1_460" x1="63.3" y1="0" x2="63.3" y2="32.2" gradientUnits="userSpaceOnUse">
<stop stop-color="#FEFEFF" stop-opacity="0.29"/>
<stop offset="1" stop-color="white" stop-opacity="0.4"/>
</linearGradient>
<linearGradient id="paint3_linear_1_460" x1="45.6555" y1="2.15937" x2="82.7022" y2="6.78831" gradientUnits="userSpaceOnUse">
<stop stop-color="white" stop-opacity="0.08"/>
<stop offset="1" stop-color="white" stop-opacity="0.07"/>
</linearGradient>
<linearGradient id="paint4_linear_1_460" x1="110.5" y1="0" x2="110.5" y2="32.2" gradientUnits="userSpaceOnUse">
<stop stop-color="#FEFEFF" stop-opacity="0.29"/>
<stop offset="1" stop-color="white" stop-opacity="0.4"/>
</linearGradient>
<linearGradient id="paint5_linear_1_460" x1="92.8555" y1="2.15937" x2="129.902" y2="6.78831" gradientUnits="userSpaceOnUse">
<stop stop-color="white" stop-opacity="0.08"/>
<stop offset="1" stop-color="white" stop-opacity="0.07"/>
</linearGradient>
<linearGradient id="paint6_linear_1_460" x1="157.7" y1="0" x2="157.7" y2="32.2" gradientUnits="userSpaceOnUse">
<stop stop-color="#FEFEFF" stop-opacity="0.29"/>
<stop offset="1" stop-color="white" stop-opacity="0.4"/>
</linearGradient>
<linearGradient id="paint7_linear_1_460" x1="140.056" y1="2.15937" x2="177.102" y2="6.78831" gradientUnits="userSpaceOnUse">
<stop stop-color="white" stop-opacity="0.08"/>
<stop offset="1" stop-color="white" stop-opacity="0.07"/>
</linearGradient>
</defs>
</svg>
