<svg width="108" height="18" viewBox="0 0 108 18" fill="none" xmlns="http://www.w3.org/2000/svg">
<g clip-path="url(#clip0_1_317)">
<path d="M108 9C108 4.029 103.971 0 99 0C94.029 0 90 4.029 90 9C90 13.4929 93.2906 17.2162 97.5938 17.8912V11.601H95.3085V9H97.5938V7.017C97.5938 4.76175 98.9366 3.51562 100.993 3.51562C101.978 3.51562 103.008 3.6915 103.008 3.6915V5.90625H101.872C100.755 5.90625 100.406 6.60075 100.406 7.3125V9H102.902L102.503 11.6017H100.406V17.8909C104.709 17.2162 108 13.4929 108 9Z" fill="#1877F2"/>
<path d="M102.503 11.6017L102.902 9H100.406V7.3125C100.406 6.60075 100.754 5.90625 101.873 5.90625H103.008V3.6915C103.008 3.6915 101.978 3.51562 100.994 3.51562C98.9368 3.51562 97.5939 4.76175 97.5939 7.017V9H95.3086V11.6017H97.5939V17.8909C98.0525 17.9633 98.522 18 99.0001 18C99.4783 18 99.9478 17.9632 100.406 17.8912V11.601H102.503V11.6017Z" fill="white"/>
</g>
<g clip-path="url(#clip1_1_317)">
<path d="M60 9C60 4.02938 64.0294 0 69 0C73.9706 0 78 4.02938 78 9C78 13.9706 73.9706 18 69 18C64.0294 18 60 13.9706 60 9Z" fill="#3FA4F1"/>
<path d="M68.7304 7.31546L68.7491 7.62671L68.4345 7.58846C67.2889 7.44221 66.288 6.94646 65.4382 6.11396L65.0224 5.70109L64.9155 6.00596C64.689 6.68621 64.8337 7.40434 65.3055 7.88734C65.5575 8.15434 65.5009 8.19221 65.0666 8.03359C64.9155 7.98259 64.7831 7.94434 64.7704 7.96346C64.7265 8.00809 64.8776 8.58634 64.9972 8.81509C65.1611 9.13309 65.4945 9.44434 65.8597 9.62884L66.1684 9.77509L65.8031 9.78109C65.4506 9.78109 65.4379 9.78746 65.4757 9.92096C65.6017 10.3342 66.099 10.7726 66.6532 10.9635L67.0432 11.097L66.7035 11.3002C66.1892 11.5957 65.609 11.7574 65.016 11.7705C64.7329 11.7768 64.5 11.8023 64.5 11.8215C64.5 11.8852 65.268 12.2407 65.715 12.3806C67.056 12.7938 68.6486 12.6157 69.8449 11.9103C70.6946 11.4082 71.5444 10.4103 71.9411 9.44434C72.1549 8.92946 72.369 7.98896 72.369 7.53784C72.369 7.24534 72.3877 7.20709 72.7402 6.85759C72.9484 6.65434 73.1434 6.43196 73.1812 6.36821C73.2442 6.24746 73.2379 6.24746 72.9169 6.35546C72.3817 6.54634 72.306 6.52084 72.5707 6.23471C72.7657 6.03146 72.9986 5.66284 72.9986 5.55484C72.9986 5.53609 72.9041 5.56759 72.7972 5.62459C72.684 5.68834 72.432 5.78359 72.2434 5.84096L71.9032 5.94896L71.5946 5.73896C71.4247 5.62459 71.1859 5.49746 71.0599 5.45959C70.7385 5.37034 70.2476 5.38309 69.9581 5.48509C69.171 5.77084 68.6737 6.50809 68.7304 7.31509V7.31546Z" fill="white"/>
</g>
<g clip-path="url(#clip2_1_317)">
<path d="M5.22 10.44C8.103 10.44 10.44 8.103 10.44 5.22C10.44 2.337 8.103 0 5.22 0C2.337 0 0 2.337 0 5.22C0 8.103 2.337 10.44 5.22 10.44Z" fill="#28A8EA"/>
<path d="M12.7799 18.0001C15.6629 18.0001 17.9999 15.6631 17.9999 12.7801C17.9999 9.89706 15.6629 7.56006 12.7799 7.56006C9.89691 7.56006 7.55991 9.89706 7.55991 12.7801C7.55991 15.6631 9.89691 18.0001 12.7799 18.0001Z" fill="#28A8EA"/>
<path d="M9.00014 17.6401C13.772 17.6401 17.6401 13.772 17.6401 9.00011C17.6401 4.22823 13.772 0.360107 9.00014 0.360107C4.22826 0.360107 0.360138 4.22823 0.360138 9.00011C0.360138 13.772 4.22826 17.6401 9.00014 17.6401Z" fill="#28A8EA"/>
<path fill-rule="evenodd" clip-rule="evenodd" d="M6.75937 8.83621C6.42154 8.61366 6.1397 8.31604 5.93587 7.96659C5.73895 7.59771 5.64175 7.18381 5.65387 6.76584C5.63887 6.23529 5.81991 5.71782 6.16237 5.31234C6.51813 4.90521 6.97539 4.59959 7.48762 4.42659C8.04494 4.22988 8.63212 4.13117 9.22312 4.13484C9.60975 4.13109 9.996 4.16071 10.3777 4.22334C10.6507 4.26534 10.9189 4.33471 11.1784 4.42996C11.4164 4.51066 11.6314 4.64797 11.8046 4.83009C11.9325 4.98009 12.0015 5.17134 11.9985 5.36821C12.0031 5.47052 11.9875 5.57273 11.9526 5.66899C11.9176 5.76525 11.864 5.85368 11.7949 5.92921C11.7295 5.99884 11.6501 6.05384 11.562 6.09062C11.4738 6.12739 11.3789 6.1451 11.2834 6.14259C11.1519 6.14158 11.0221 6.11243 10.9027 6.05709C10.6091 5.92584 10.3065 5.81521 9.99712 5.72596C9.71242 5.65092 9.41892 5.61447 9.1245 5.61759C8.7411 5.60343 8.36178 5.70031 8.03212 5.89659C7.89292 5.98116 7.779 6.10159 7.70228 6.24527C7.62556 6.38895 7.58885 6.55061 7.596 6.71334C7.59388 6.92683 7.67499 7.13276 7.82212 7.28746C7.99713 7.469 8.20392 7.61695 8.43225 7.72396C8.68837 7.85071 9.06975 8.01909 9.57712 8.22909C9.63337 8.24671 9.6885 8.26884 9.74137 8.29471C10.2366 8.49045 10.7114 8.73438 11.1589 9.02296C11.5122 9.25353 11.8101 9.55948 12.0311 9.91884C12.2488 10.2962 12.3578 10.7265 12.3461 11.162C12.3645 11.6956 12.2115 12.2211 11.9096 12.6616C11.6024 13.0784 11.1774 13.3937 10.6894 13.5668C10.1014 13.7768 9.48 13.8781 8.85562 13.8657C7.99762 13.8957 7.14375 13.7345 6.35587 13.3932C6.15418 13.3035 5.97735 13.166 5.84062 12.9927C5.72739 12.8341 5.6687 12.643 5.67337 12.4482C5.66766 12.3454 5.68436 12.2425 5.7223 12.1468C5.76024 12.051 5.81852 11.9646 5.89312 11.8936C6.04987 11.7567 6.25312 11.6851 6.46087 11.6937C6.6922 11.6969 6.9194 11.7554 7.1235 11.8643C7.377 11.9911 7.57725 12.0863 7.7235 12.1497C7.89112 12.2198 8.06475 12.2746 8.24212 12.3136C8.46075 12.3616 8.68425 12.3848 8.90812 12.3826C9.30386 12.4107 9.69764 12.3056 10.0267 12.0841C10.1499 11.9876 10.2484 11.8633 10.314 11.7213C10.3796 11.5792 10.4104 11.4236 10.404 11.2673C10.4045 11.0453 10.32 10.8316 10.1677 10.67C9.96674 10.4629 9.73155 10.292 9.4725 10.1648C9.16612 10.0028 8.73525 9.80596 8.17987 9.57421C7.68291 9.37628 7.20703 9.12905 6.75937 8.83621Z" fill="white"/>
<path opacity="0.1" fill-rule="evenodd" clip-rule="evenodd" d="M6.85073 0.26252C6.6224 0.186086 6.38894 0.125935 6.15211 0.0825195C4.73064 0.538776 3.4385 1.32749 2.38293 2.38319C1.32736 3.43889 0.538814 4.73112 0.0827332 6.15264C0.126233 6.38964 0.186233 6.62289 0.262733 6.85127C0.326483 7.05752 0.407108 7.25889 0.503858 7.45239C0.81652 5.72444 1.64939 4.13317 2.89104 2.89145C4.13269 1.64973 5.72392 0.816775 7.45186 0.504019C7.25841 0.40735 7.05736 0.326705 6.85073 0.262895V0.26252Z" fill="black"/>
<path opacity="0.1" fill-rule="evenodd" clip-rule="evenodd" d="M6.85108 0.262451C5.2565 0.655608 3.79977 1.47728 2.63846 2.63858C1.47716 3.79989 0.655486 5.25662 0.262329 6.8512C0.326079 7.05745 0.406704 7.25883 0.503454 7.45233C0.81614 5.72432 1.64906 4.13301 2.89079 2.89129C4.13251 1.64956 5.72382 0.816637 7.45183 0.503951C7.2585 0.407298 7.05758 0.326653 6.85108 0.262826V0.262451Z" fill="black"/>
<path opacity="0.1" fill-rule="evenodd" clip-rule="evenodd" d="M17.7376 11.149C17.6736 10.9423 17.5929 10.7413 17.4961 10.5479C17.1834 12.2758 16.3505 13.867 15.1088 15.1086C13.8672 16.3503 12.276 17.1832 10.5481 17.4958C10.7416 17.5926 10.9426 17.6732 11.1492 17.737C11.3776 17.8135 11.6108 17.8735 11.8474 17.917C13.269 17.4609 14.5612 16.6724 15.6169 15.6168C16.6726 14.5612 17.4613 13.2691 17.9176 11.8476C17.8742 11.6108 17.814 11.3773 17.7376 11.149Z" fill="black"/>
<path opacity="0.1" fill-rule="evenodd" clip-rule="evenodd" d="M17.4961 10.5479C17.1834 12.2758 16.3505 13.867 15.1088 15.1086C13.8672 16.3503 12.276 17.1832 10.5481 17.4958C10.7416 17.5926 10.9426 17.6732 11.1492 17.737C12.7436 17.3437 14.2001 16.5221 15.3613 15.361C16.5225 14.1998 17.3442 12.7433 17.7376 11.149C17.6738 10.9423 17.5931 10.7413 17.4964 10.5479H17.4961Z" fill="black"/>
</g>
<g clip-path="url(#clip3_1_317)">
<path d="M30 9C30 4.02938 34.0294 0 39 0C43.9706 0 48 4.02938 48 9C48 13.9706 43.9706 18 39 18C34.0294 18 30 13.9706 30 9Z" fill="#0077B5"/>
<path fill-rule="evenodd" clip-rule="evenodd" d="M36.4945 5.55862C36.4945 6.147 36.0516 6.61762 35.3402 6.61762H35.3275C34.6427 6.61762 34.1998 6.147 34.1998 5.55862C34.1998 4.9575 34.6562 4.5 35.3537 4.5C36.0512 4.5 36.4813 4.9575 36.4945 5.55862ZM36.3602 7.45425V13.5825H34.3202V7.45425H36.3602ZM43.7155 13.5825V10.0688C43.7155 8.18625 42.7093 7.31025 41.3672 7.31025C40.2846 7.31025 39.7997 7.905 39.529 8.32238V7.45425H37.489C37.516 8.0295 37.489 13.5825 37.489 13.5825H39.529V10.1599C39.529 9.97688 39.5421 9.79425 39.5961 9.663C39.7435 9.297 40.0791 8.91825 40.6423 8.91825C41.3811 8.91825 41.6762 9.48037 41.6762 10.3039V13.5825H43.7155Z" fill="white"/>
</g>
<defs>
<clipPath id="clip0_1_317">
<rect width="18" height="18" fill="white" transform="translate(90)"/>
</clipPath>
<clipPath id="clip1_1_317">
<rect width="18" height="18" fill="white" transform="translate(60)"/>
</clipPath>
<clipPath id="clip2_1_317">
<rect width="18" height="18" fill="white"/>
</clipPath>
<clipPath id="clip3_1_317">
<rect width="18" height="18" fill="white" transform="translate(30)"/>
</clipPath>
</defs>
</svg>
