<svg width="96" height="35" viewBox="0 0 96 35" fill="none" xmlns="http://www.w3.org/2000/svg">
<path d="M27.9759 9.65631C28.5646 9.49855 29.0852 9.15153 29.4574 8.66875C29.8294 8.18596 30.0323 7.59419 30.035 6.98468V6.97743C30.035 6.24487 29.744 5.54232 29.2259 5.02433C28.7079 4.50634 28.0053 4.21533 27.2729 4.21533H27.2658C26.6563 4.218 26.0646 4.42102 25.582 4.7931C25.0993 5.16518 24.7522 5.68569 24.5946 6.27439C24.1434 7.90892 23.1683 9.35028 21.8192 10.3775C20.47 11.4046 18.8212 11.9609 17.1255 11.9609C15.4299 11.9609 13.781 11.4046 12.4318 10.3775C11.0827 9.35028 10.1077 7.90892 9.65647 6.27439C9.49863 5.68573 9.15159 5.16531 8.66884 4.79332C8.18609 4.42131 7.59442 4.21838 6.98498 4.21579H6.97774C6.24519 4.21579 5.54263 4.5068 5.02463 5.02479C4.50664 5.54278 4.21564 6.24534 4.21564 6.97789V6.98514C4.21833 7.59458 4.42136 8.18623 4.79344 8.66894C5.16552 9.15162 5.68601 9.49857 6.27469 9.65631C7.90922 10.1075 9.3506 11.0825 10.3778 12.4317C11.4049 13.7808 11.9612 15.4297 11.9612 17.1254C11.9612 18.821 11.4049 20.4698 10.3778 21.8191C9.3506 23.1683 7.90922 24.1432 6.27469 24.5944C5.68604 24.7522 5.1656 25.0991 4.79355 25.5818C4.4215 26.0645 4.21849 26.6561 4.21579 27.2654V27.2727C4.21579 28.0053 4.5068 28.7078 5.02479 29.2259C5.5428 29.7438 6.24533 30.0348 6.97789 30.0348H6.98514C7.59459 30.0322 8.18623 29.8291 8.66893 29.457C9.15162 29.0849 9.49856 28.5644 9.65631 27.9757C10.1076 26.3412 11.0825 24.8999 12.4317 23.8727C13.7808 22.8454 15.4297 22.2893 17.1254 22.2893C18.821 22.2893 20.4699 22.8454 21.8191 23.8727C23.1681 24.8999 24.1432 26.3412 24.5944 27.9757C24.7521 28.5644 25.0991 29.085 25.5818 29.4572C26.0645 29.8292 26.6563 30.0323 27.2658 30.0349H27.273C28.0055 30.0349 28.7081 29.7438 29.226 29.2259C29.744 28.7079 30.0351 28.0053 30.0351 27.2728V27.2654C30.0325 26.6559 29.8294 26.0643 29.4574 25.5816C29.0852 25.099 28.5647 24.7521 27.976 24.5943C26.3416 24.143 24.9002 23.1681 23.873 21.8189C22.8458 20.4697 22.2896 18.8209 22.2896 17.1252C22.2896 15.4295 22.8458 13.7807 23.873 12.4315C24.9002 11.0824 26.3416 10.1074 27.976 9.65616L27.9759 9.65631Z" fill="#AF51C5"/>
<path d="M27.9759 9.65631C28.5646 9.49855 29.0852 9.15153 29.4574 8.66875C29.8294 8.18596 30.0323 7.59419 30.035 6.98468V6.97743C30.035 6.24487 29.744 5.54232 29.2259 5.02433C28.7079 4.50634 28.0053 4.21533 27.2729 4.21533H27.2658C26.6563 4.218 26.0646 4.42102 25.582 4.7931C25.0993 5.16518 24.7522 5.68569 24.5946 6.27439C24.1434 7.90892 23.1683 9.35028 21.8192 10.3775C20.47 11.4046 18.8212 11.9609 17.1255 11.9609C15.4299 11.9609 13.781 11.4046 12.4318 10.3775C11.0827 9.35028 10.1077 7.90892 9.65647 6.27439C9.49863 5.68573 9.15159 5.16531 8.66884 4.79332C8.18609 4.42131 7.59442 4.21838 6.98498 4.21579H6.97774C6.24519 4.21579 5.54263 4.5068 5.02463 5.02479C4.50664 5.54278 4.21564 6.24534 4.21564 6.97789V6.98514C4.21833 7.59458 4.42136 8.18623 4.79344 8.66894C5.16552 9.15162 5.68601 9.49857 6.27469 9.65631C7.90922 10.1075 9.3506 11.0825 10.3778 12.4317C11.4049 13.7808 11.9612 15.4297 11.9612 17.1254C11.9612 18.821 11.4049 20.4698 10.3778 21.8191C9.3506 23.1683 7.90922 24.1432 6.27469 24.5944C5.68604 24.7522 5.1656 25.0991 4.79355 25.5818C4.4215 26.0645 4.21849 26.6561 4.21579 27.2654V27.2727C4.21579 28.0053 4.5068 28.7078 5.02479 29.2259C5.5428 29.7438 6.24533 30.0348 6.97789 30.0348H6.98514C7.59459 30.0322 8.18623 29.8291 8.66893 29.457C9.15162 29.0849 9.49856 28.5644 9.65631 27.9757C10.1076 26.3412 11.0825 24.8999 12.4317 23.8727C13.7808 22.8454 15.4297 22.2893 17.1254 22.2893C18.821 22.2893 20.4699 22.8454 21.8191 23.8727C23.1681 24.8999 24.1432 26.3412 24.5944 27.9757C24.7521 28.5644 25.0991 29.085 25.5818 29.4572C26.0645 29.8292 26.6563 30.0323 27.2658 30.0349H27.273C28.0055 30.0349 28.7081 29.7438 29.226 29.2259C29.744 28.7079 30.0351 28.0053 30.0351 27.2728V27.2654C30.0325 26.6559 29.8294 26.0643 29.4574 25.5816C29.0852 25.099 28.5647 24.7521 27.976 24.5943C26.3416 24.143 24.9002 23.1681 23.873 21.8189C22.8458 20.4697 22.2896 18.8209 22.2896 17.1252C22.2896 15.4295 22.8458 13.7807 23.873 12.4315C24.9002 11.0824 26.3416 10.1074 27.976 9.65616L27.9759 9.65631Z" fill="url(#paint0_linear_1_525)"/>
<path d="M3.61418 1.63601C3.70303 1.72437 3.81721 1.78286 3.94083 1.80332C4.06446 1.82379 4.19138 1.80522 4.30398 1.7502C5.33122 1.25411 6.48706 1.08888 7.61215 1.27729C8.73725 1.46569 9.7762 1.99847 10.5858 2.80215C10.6974 2.9146 10.8482 2.97945 11.0066 2.98307C11.165 2.9867 11.3186 2.92881 11.4352 2.82157C11.4932 2.76626 11.5395 2.69993 11.5714 2.62647C11.6034 2.553 11.6203 2.4739 11.6213 2.39379C11.6222 2.31369 11.6071 2.23421 11.5769 2.16002C11.5466 2.08583 11.5019 2.01844 11.4452 1.96179C10.458 0.976977 9.18875 0.32382 7.81352 0.0929341C6.43831 -0.137952 5.02533 0.0648797 3.7706 0.673289C3.68518 0.715649 3.61107 0.777768 3.55445 0.854493C3.49783 0.931217 3.46032 1.02034 3.44502 1.11446C3.42973 1.20858 3.4371 1.30499 3.46651 1.39569C3.49593 1.4864 3.54656 1.56878 3.61418 1.63601Z" fill="#AF51C5"/>
<path d="M3.61418 1.63601C3.70303 1.72437 3.81721 1.78286 3.94083 1.80332C4.06446 1.82379 4.19138 1.80522 4.30398 1.7502C5.33122 1.25411 6.48706 1.08888 7.61215 1.27729C8.73725 1.46569 9.7762 1.99847 10.5858 2.80215C10.6974 2.9146 10.8482 2.97945 11.0066 2.98307C11.165 2.9867 11.3186 2.92881 11.4352 2.82157C11.4932 2.76626 11.5395 2.69993 11.5714 2.62647C11.6034 2.553 11.6203 2.4739 11.6213 2.39379C11.6222 2.31369 11.6071 2.23421 11.5769 2.16002C11.5466 2.08583 11.5019 2.01844 11.4452 1.96179C10.458 0.976977 9.18875 0.32382 7.81352 0.0929341C6.43831 -0.137952 5.02533 0.0648797 3.7706 0.673289C3.68518 0.715649 3.61107 0.777768 3.55445 0.854493C3.49783 0.931217 3.46032 1.02034 3.44502 1.11446C3.42973 1.20858 3.4371 1.30499 3.46651 1.39569C3.49593 1.4864 3.54656 1.56878 3.61418 1.63601Z" fill="url(#paint1_linear_1_525)"/>
<path d="M0.675463 3.76593C0.0677957 5.01662 -0.136769 6.42505 0.0899917 7.79693C0.316752 9.16883 0.963663 10.4365 1.94147 11.4252C2.04429 11.5332 2.18276 11.6004 2.33128 11.6142C2.47978 11.6281 2.62828 11.5877 2.74931 11.5005C2.81788 11.4487 2.87454 11.3828 2.91547 11.3072C2.95641 11.2317 2.98066 11.1482 2.98658 11.0624C2.99251 10.9767 2.97998 10.8907 2.94986 10.8102C2.91971 10.7297 2.87266 10.6566 2.81188 10.5959C2.00409 9.78613 1.46811 8.74518 1.27822 7.61727C1.08834 6.48935 1.25394 5.33029 1.75207 4.30069C1.80751 4.18797 1.82638 4.06077 1.80607 3.93682C1.78578 3.81286 1.72729 3.69834 1.6388 3.6092C1.57152 3.54152 1.48908 3.49086 1.3983 3.46142C1.30753 3.43201 1.21104 3.42464 1.11685 3.43996C1.02267 3.45529 0.933489 3.49285 0.856724 3.54954C0.77996 3.60623 0.717819 3.68041 0.675463 3.76593Z" fill="#AF51C5"/>
<path d="M0.675463 3.76593C0.0677957 5.01662 -0.136769 6.42505 0.0899917 7.79693C0.316752 9.16883 0.963663 10.4365 1.94147 11.4252C2.04429 11.5332 2.18276 11.6004 2.33128 11.6142C2.47978 11.6281 2.62828 11.5877 2.74931 11.5005C2.81788 11.4487 2.87454 11.3828 2.91547 11.3072C2.95641 11.2317 2.98066 11.1482 2.98658 11.0624C2.99251 10.9767 2.97998 10.8907 2.94986 10.8102C2.91971 10.7297 2.87266 10.6566 2.81188 10.5959C2.00409 9.78613 1.46811 8.74518 1.27822 7.61727C1.08834 6.48935 1.25394 5.33029 1.75207 4.30069C1.80751 4.18797 1.82638 4.06077 1.80607 3.93682C1.78578 3.81286 1.72729 3.69834 1.6388 3.6092C1.57152 3.54152 1.48908 3.49086 1.3983 3.46142C1.30753 3.43201 1.21104 3.42464 1.11685 3.43996C1.02267 3.45529 0.933489 3.49285 0.856724 3.54954C0.77996 3.60623 0.717819 3.68041 0.675463 3.76593Z" fill="url(#paint2_linear_1_525)"/>
<path d="M29.9473 32.5005C28.9197 32.9968 27.7636 33.162 26.6381 32.9732C25.5128 32.7846 24.4737 32.2514 23.6641 31.4472C23.5527 31.3353 23.4025 31.2708 23.2446 31.2672C23.0867 31.2635 22.9337 31.3211 22.8173 31.4279C22.759 31.4831 22.7125 31.5495 22.6803 31.6231C22.6482 31.6966 22.6311 31.7758 22.6301 31.8561C22.629 31.9364 22.6441 32.016 22.6743 32.0903C22.7045 32.1647 22.7493 32.2322 22.8061 32.289C23.7933 33.2737 25.0625 33.9268 26.4378 34.1578C27.8129 34.3887 29.2259 34.1859 30.4807 33.5775C30.5661 33.5351 30.6402 33.473 30.6969 33.3962C30.7535 33.3195 30.7909 33.2304 30.8062 33.1362C30.8214 33.0421 30.814 32.9456 30.7846 32.855C30.7552 32.7642 30.7045 32.6819 30.6368 32.6147C30.548 32.5264 30.4338 32.468 30.3102 32.4475C30.1868 32.427 30.0598 32.4455 29.9473 32.5005Z" fill="#AF51C5"/>
<path d="M29.9473 32.5005C28.9197 32.9968 27.7636 33.162 26.6381 32.9732C25.5128 32.7846 24.4737 32.2514 23.6641 31.4472C23.5527 31.3353 23.4025 31.2708 23.2446 31.2672C23.0867 31.2635 22.9337 31.3211 22.8173 31.4279C22.759 31.4831 22.7125 31.5495 22.6803 31.6231C22.6482 31.6966 22.6311 31.7758 22.6301 31.8561C22.629 31.9364 22.6441 32.016 22.6743 32.0903C22.7045 32.1647 22.7493 32.2322 22.8061 32.289C23.7933 33.2737 25.0625 33.9268 26.4378 34.1578C27.8129 34.3887 29.2259 34.1859 30.4807 33.5775C30.5661 33.5351 30.6402 33.473 30.6969 33.3962C30.7535 33.3195 30.7909 33.2304 30.8062 33.1362C30.8214 33.0421 30.814 32.9456 30.7846 32.855C30.7552 32.7642 30.7045 32.6819 30.6368 32.6147C30.548 32.5264 30.4338 32.468 30.3102 32.4475C30.1868 32.427 30.0598 32.4455 29.9473 32.5005Z" fill="url(#paint3_linear_1_525)"/>
<path d="M31.428 22.8168C31.3212 22.9331 31.2636 23.0862 31.2673 23.2441C31.2708 23.4019 31.3354 23.5524 31.4473 23.6636C32.252 24.4738 32.7854 25.5139 32.9736 26.6401C33.1619 27.7665 32.9957 28.9234 32.4983 29.9513C32.4431 30.0639 32.4245 30.1909 32.4448 30.3147C32.4653 30.4384 32.5237 30.5528 32.6122 30.6417C32.6794 30.7093 32.7617 30.7599 32.8523 30.7895C32.9429 30.8189 33.0392 30.8263 33.1334 30.8111C33.2274 30.7958 33.3166 30.7585 33.3932 30.7019C33.4699 30.6454 33.5322 30.5714 33.5746 30.486C34.1849 29.231 34.389 27.817 34.1588 26.4407C33.9286 25.0642 33.2753 23.7937 32.2898 22.8055C32.2331 22.7487 32.1654 22.7038 32.091 22.6735C32.0165 22.6431 31.9369 22.628 31.8566 22.6291C31.7761 22.6302 31.6969 22.6473 31.6232 22.6796C31.5496 22.7118 31.4833 22.7584 31.428 22.8168Z" fill="#AF51C5"/>
<path d="M31.428 22.8168C31.3212 22.9331 31.2636 23.0862 31.2673 23.2441C31.2708 23.4019 31.3354 23.5524 31.4473 23.6636C32.252 24.4738 32.7854 25.5139 32.9736 26.6401C33.1619 27.7665 32.9957 28.9234 32.4983 29.9513C32.4431 30.0639 32.4245 30.1909 32.4448 30.3147C32.4653 30.4384 32.5237 30.5528 32.6122 30.6417C32.6794 30.7093 32.7617 30.7599 32.8523 30.7895C32.9429 30.8189 33.0392 30.8263 33.1334 30.8111C33.2274 30.7958 33.3166 30.7585 33.3932 30.7019C33.4699 30.6454 33.5322 30.5714 33.5746 30.486C34.1849 29.231 34.389 27.817 34.1588 26.4407C33.9286 25.0642 33.2753 23.7937 32.2898 22.8055C32.2331 22.7487 32.1654 22.7038 32.091 22.6735C32.0165 22.6431 31.9369 22.628 31.8566 22.6291C31.7761 22.6302 31.6969 22.6473 31.6232 22.6796C31.5496 22.7118 31.4833 22.7584 31.428 22.8168Z" fill="url(#paint4_linear_1_525)"/>
<path d="M32.4994 4.30144C32.9964 5.32914 33.162 6.48578 32.9736 7.61167C32.7851 8.73756 32.2517 9.7772 31.4473 10.5871C31.3354 10.6984 31.2708 10.8487 31.2673 11.0065C31.2636 11.1644 31.3212 11.3175 31.428 11.4338C31.4832 11.492 31.5496 11.5386 31.6231 11.5708C31.6966 11.6029 31.7758 11.6201 31.8561 11.6211C31.9364 11.6222 32.0159 11.6072 32.0904 11.5769C32.1646 11.5467 32.2323 11.5019 32.289 11.4452C33.2742 10.4575 33.9276 9.18752 34.1582 7.81161C34.3889 6.43573 34.1855 5.02214 33.5761 3.76714C33.5337 3.68175 33.4715 3.60771 33.3947 3.55115C33.318 3.49458 33.2289 3.45713 33.1348 3.44191C33.0407 3.42668 32.9443 3.43409 32.8537 3.46356C32.7629 3.49303 32.6806 3.54368 32.6134 3.61133C32.5251 3.70024 32.4665 3.81448 32.446 3.93815C32.4257 4.06184 32.4443 4.18881 32.4994 4.30144Z" fill="#AF51C5"/>
<path d="M32.4994 4.30144C32.9964 5.32914 33.162 6.48578 32.9736 7.61167C32.7851 8.73756 32.2517 9.7772 31.4473 10.5871C31.3354 10.6984 31.2708 10.8487 31.2673 11.0065C31.2636 11.1644 31.3212 11.3175 31.428 11.4338C31.4832 11.492 31.5496 11.5386 31.6231 11.5708C31.6966 11.6029 31.7758 11.6201 31.8561 11.6211C31.9364 11.6222 32.0159 11.6072 32.0904 11.5769C32.1646 11.5467 32.2323 11.5019 32.289 11.4452C33.2742 10.4575 33.9276 9.18752 34.1582 7.81161C34.3889 6.43573 34.1855 5.02214 33.5761 3.76714C33.5337 3.68175 33.4715 3.60771 33.3947 3.55115C33.318 3.49458 33.2289 3.45713 33.1348 3.44191C33.0407 3.42668 32.9443 3.43409 32.8537 3.46356C32.7629 3.49303 32.6806 3.54368 32.6134 3.61133C32.5251 3.70024 32.4665 3.81448 32.446 3.93815C32.4257 4.06184 32.4443 4.18881 32.4994 4.30144Z" fill="url(#paint5_linear_1_525)"/>
<path d="M23.6638 2.80351C24.4737 1.99895 25.5133 1.46562 26.6392 1.27714C27.7651 1.08866 28.9217 1.25432 29.9495 1.75125C30.0621 1.80641 30.1891 1.82507 30.3127 1.80465C30.4365 1.78424 30.5507 1.72576 30.6396 1.63736C30.7072 1.57019 30.7579 1.48784 30.7874 1.39717C30.8168 1.30649 30.8242 1.2101 30.809 1.11598C30.7938 1.02187 30.7564 0.932737 30.6998 0.855986C30.6433 0.779234 30.5692 0.717071 30.4838 0.67465C29.2287 0.0652879 27.8152 -0.138193 26.4393 0.0924607C25.0634 0.323115 23.7934 0.976453 22.8057 1.96176C22.749 2.01852 22.7042 2.08605 22.674 2.16039C22.6438 2.23475 22.6287 2.3144 22.6298 2.39464C22.6308 2.4749 22.6479 2.55413 22.68 2.62765C22.7122 2.7012 22.7587 2.76754 22.817 2.82277C22.9333 2.92951 23.0864 2.9871 23.2443 2.98351C23.4022 2.97992 23.5524 2.91542 23.6638 2.80351Z" fill="#AF51C5"/>
<path d="M23.6638 2.80351C24.4737 1.99895 25.5133 1.46562 26.6392 1.27714C27.7651 1.08866 28.9217 1.25432 29.9495 1.75125C30.0621 1.80641 30.1891 1.82507 30.3127 1.80465C30.4365 1.78424 30.5507 1.72576 30.6396 1.63736C30.7072 1.57019 30.7579 1.48784 30.7874 1.39717C30.8168 1.30649 30.8242 1.2101 30.809 1.11598C30.7938 1.02187 30.7564 0.932737 30.6998 0.855986C30.6433 0.779234 30.5692 0.717071 30.4838 0.67465C29.2287 0.0652879 27.8152 -0.138193 26.4393 0.0924607C25.0634 0.323115 23.7934 0.976453 22.8057 1.96176C22.749 2.01852 22.7042 2.08605 22.674 2.16039C22.6438 2.23475 22.6287 2.3144 22.6298 2.39464C22.6308 2.4749 22.6479 2.55413 22.68 2.62765C22.7122 2.7012 22.7587 2.76754 22.817 2.82277C22.9333 2.92951 23.0864 2.9871 23.2443 2.98351C23.4022 2.97992 23.5524 2.91542 23.6638 2.80351Z" fill="url(#paint6_linear_1_525)"/>
<path d="M10.5873 31.4472C9.7774 32.2517 8.73776 32.785 7.61187 32.9735C6.48596 33.162 5.32934 32.9963 4.30161 32.4993C4.18901 32.4443 4.06202 32.4257 3.93835 32.446C3.81466 32.4665 3.70042 32.5251 3.61151 32.6134C3.54388 32.6806 3.49322 32.7628 3.46375 32.8536C3.43429 32.9442 3.42686 33.0407 3.44209 33.1347C3.45733 33.2289 3.49478 33.3179 3.55133 33.3947C3.60789 33.4714 3.68194 33.5337 3.76732 33.5761C5.02232 34.1854 6.43591 34.3889 7.81181 34.1582C9.18771 33.9276 10.4577 33.2742 11.4454 32.289C11.5021 32.2322 11.5469 32.1646 11.5771 32.0903C11.6073 32.016 11.6224 31.9364 11.6213 31.8561C11.6202 31.7758 11.6031 31.6966 11.5709 31.6231C11.5388 31.5495 11.4922 31.4831 11.4339 31.4279C11.3177 31.3212 11.1646 31.2635 11.0067 31.2671C10.8489 31.2708 10.6986 31.3352 10.5873 31.4472Z" fill="#AF51C5"/>
<path d="M10.5873 31.4472C9.7774 32.2517 8.73776 32.785 7.61187 32.9735C6.48596 33.162 5.32934 32.9963 4.30161 32.4993C4.18901 32.4443 4.06202 32.4257 3.93835 32.446C3.81466 32.4665 3.70042 32.5251 3.61151 32.6134C3.54388 32.6806 3.49322 32.7628 3.46375 32.8536C3.43429 32.9442 3.42686 33.0407 3.44209 33.1347C3.45733 33.2289 3.49478 33.3179 3.55133 33.3947C3.60789 33.4714 3.68194 33.5337 3.76732 33.5761C5.02232 34.1854 6.43591 34.3889 7.81181 34.1582C9.18771 33.9276 10.4577 33.2742 11.4454 32.289C11.5021 32.2322 11.5469 32.1646 11.5771 32.0903C11.6073 32.016 11.6224 31.9364 11.6213 31.8561C11.6202 31.7758 11.6031 31.6966 11.5709 31.6231C11.5388 31.5495 11.4922 31.4831 11.4339 31.4279C11.3177 31.3212 11.1646 31.2635 11.0067 31.2671C10.8489 31.2708 10.6986 31.3352 10.5873 31.4472Z" fill="url(#paint7_linear_1_525)"/>
<path d="M1.75146 29.9493C1.25446 28.9215 1.08875 27.7649 1.2772 26.639C1.46566 25.5131 1.99899 24.4735 2.80356 23.6636C2.91546 23.5522 2.97997 23.4019 2.98356 23.2441C2.98715 23.0862 2.92955 22.9331 2.82283 22.8168C2.76758 22.7585 2.70124 22.712 2.62771 22.6798C2.55417 22.6477 2.47494 22.6306 2.3947 22.6295C2.31445 22.6285 2.23479 22.6436 2.16045 22.6738C2.08611 22.704 2.01856 22.7488 1.96182 22.8055C0.976504 23.7932 0.323159 25.0632 0.0925065 26.4391C-0.138147 27.815 0.0653337 29.2285 0.674696 30.4836C0.717115 30.5689 0.77928 30.6431 0.856031 30.6996C0.932783 30.7562 1.02191 30.7936 1.11603 30.8087C1.21015 30.824 1.30654 30.8166 1.39721 30.7872C1.48789 30.7577 1.57023 30.707 1.63742 30.6394C1.7258 30.5505 1.78427 30.4363 1.80472 30.3125C1.82515 30.1889 1.80654 30.0619 1.75146 29.9493Z" fill="#AF51C5"/>
<path d="M1.75146 29.9493C1.25446 28.9215 1.08875 27.7649 1.2772 26.639C1.46566 25.5131 1.99899 24.4735 2.80356 23.6636C2.91546 23.5522 2.97997 23.4019 2.98356 23.2441C2.98715 23.0862 2.92955 22.9331 2.82283 22.8168C2.76758 22.7585 2.70124 22.712 2.62771 22.6798C2.55417 22.6477 2.47494 22.6306 2.3947 22.6295C2.31445 22.6285 2.23479 22.6436 2.16045 22.6738C2.08611 22.704 2.01856 22.7488 1.96182 22.8055C0.976504 23.7932 0.323159 25.0632 0.0925065 26.4391C-0.138147 27.815 0.0653337 29.2285 0.674696 30.4836C0.717115 30.5689 0.77928 30.6431 0.856031 30.6996C0.932783 30.7562 1.02191 30.7936 1.11603 30.8087C1.21015 30.824 1.30654 30.8166 1.39721 30.7872C1.48789 30.7577 1.57023 30.707 1.63742 30.6394C1.7258 30.5505 1.78427 30.4363 1.80472 30.3125C1.82515 30.1889 1.80654 30.0619 1.75146 29.9493Z" fill="url(#paint8_linear_1_525)"/>
<path d="M43.26 24C43.1267 24 43.0133 23.9533 42.92 23.86C42.8267 23.7667 42.78 23.6467 42.78 23.5V22.1C42.78 21.9 42.82 21.74 42.9 21.62C42.98 21.5 43.04 21.4133 43.08 21.36L50.04 12.36H43.46C43.3133 12.36 43.1933 12.3133 43.1 12.22C43.02 12.1267 42.98 12.0133 42.98 11.88V10.5C42.98 10.3533 43.02 10.2333 43.1 10.14C43.1933 10.0467 43.3133 10 43.46 10H53.02C53.1667 10 53.2867 10.0467 53.38 10.14C53.4733 10.2333 53.52 10.3533 53.52 10.5V11.88C53.52 12.04 53.4933 12.1733 53.44 12.28C53.3867 12.3867 53.3267 12.4867 53.26 12.58L46.44 21.62H53.24C53.3867 21.62 53.5067 21.6667 53.6 21.76C53.6933 21.8533 53.74 21.9733 53.74 22.12V23.52C53.74 23.6533 53.6933 23.7667 53.6 23.86C53.5067 23.9533 53.3867 24 53.24 24H43.26ZM60.2052 24.2C59.1385 24.2 58.2385 24.0133 57.5052 23.64C56.7852 23.2667 56.2318 22.74 55.8452 22.06C55.4718 21.38 55.2585 20.5867 55.2052 19.68C55.1918 19.44 55.1852 19.1467 55.1852 18.8C55.1852 18.4533 55.1918 18.16 55.2052 17.92C55.2585 17 55.4785 16.2067 55.8652 15.54C56.2652 14.86 56.8252 14.3333 57.5452 13.96C58.2785 13.5867 59.1652 13.4 60.2052 13.4C61.2452 13.4 62.1252 13.5867 62.8452 13.96C63.5785 14.3333 64.1385 14.86 64.5252 15.54C64.9252 16.2067 65.1518 17 65.2052 17.92C65.2185 18.16 65.2252 18.4533 65.2252 18.8C65.2252 19.1467 65.2185 19.44 65.2052 19.68C65.1518 20.5867 64.9318 21.38 64.5452 22.06C64.1718 22.74 63.6185 23.2667 62.8852 23.64C62.1652 24.0133 61.2718 24.2 60.2052 24.2ZM60.2052 22.22C60.9118 22.22 61.4585 22 61.8452 21.56C62.2318 21.1067 62.4452 20.4467 62.4852 19.58C62.4985 19.38 62.5052 19.12 62.5052 18.8C62.5052 18.48 62.4985 18.22 62.4852 18.02C62.4452 17.1667 62.2318 16.5133 61.8452 16.06C61.4585 15.6067 60.9118 15.38 60.2052 15.38C59.4985 15.38 58.9518 15.6067 58.5652 16.06C58.1785 16.5133 57.9652 17.1667 57.9252 18.02C57.9118 18.22 57.9052 18.48 57.9052 18.8C57.9052 19.12 57.9118 19.38 57.9252 19.58C57.9652 20.4467 58.1785 21.1067 58.5652 21.56C58.9518 22 59.4985 22.22 60.2052 22.22ZM67.9211 24C67.7878 24 67.6744 23.9533 67.5811 23.86C67.4878 23.7667 67.4411 23.6533 67.4411 23.52V14.08C67.4411 13.9467 67.4878 13.8333 67.5811 13.74C67.6744 13.6467 67.7878 13.6 67.9211 13.6H69.5611C69.6944 13.6 69.8078 13.6467 69.9011 13.74C69.9944 13.8333 70.0411 13.9467 70.0411 14.08V14.9C70.3878 14.4733 70.8278 14.12 71.3611 13.84C71.9078 13.5467 72.5811 13.4 73.3811 13.4C74.1944 13.4 74.9011 13.5867 75.5011 13.96C76.1011 14.32 76.5611 14.8333 76.8811 15.5C77.2144 16.1667 77.3811 16.9667 77.3811 17.9V23.52C77.3811 23.6533 77.3344 23.7667 77.2411 23.86C77.1478 23.9533 77.0344 24 76.9011 24H75.1411C75.0078 24 74.8944 23.9533 74.8011 23.86C74.7078 23.7667 74.6611 23.6533 74.6611 23.52V18.02C74.6611 17.2467 74.4678 16.64 74.0811 16.2C73.7078 15.76 73.1611 15.54 72.4411 15.54C71.7478 15.54 71.1944 15.76 70.7811 16.2C70.3678 16.64 70.1611 17.2467 70.1611 18.02V23.52C70.1611 23.6533 70.1144 23.7667 70.0211 23.86C69.9278 23.9533 69.8144 24 69.6811 24H67.9211ZM84.4016 24.2C82.9216 24.2 81.7482 23.7733 80.8816 22.92C80.0149 22.0667 79.5482 20.8533 79.4816 19.28C79.4682 19.1467 79.4616 18.98 79.4616 18.78C79.4616 18.5667 79.4682 18.4 79.4816 18.28C79.5349 17.28 79.7616 16.4133 80.1616 15.68C80.5749 14.9467 81.1416 14.3867 81.8616 14C82.5816 13.6 83.4282 13.4 84.4016 13.4C85.4816 13.4 86.3882 13.6267 87.1216 14.08C87.8549 14.52 88.4082 15.14 88.7816 15.94C89.1549 16.7267 89.3416 17.64 89.3416 18.68V19.1C89.3416 19.2333 89.2949 19.3467 89.2016 19.44C89.1082 19.5333 88.9882 19.58 88.8416 19.58H82.2016C82.2016 19.58 82.2016 19.6 82.2016 19.64C82.2016 19.68 82.2016 19.7133 82.2016 19.74C82.2149 20.2067 82.3016 20.64 82.4616 21.04C82.6349 21.4267 82.8816 21.74 83.2016 21.98C83.5349 22.22 83.9282 22.34 84.3816 22.34C84.7549 22.34 85.0682 22.2867 85.3216 22.18C85.5749 22.06 85.7816 21.9267 85.9416 21.78C86.1016 21.6333 86.2149 21.5133 86.2816 21.42C86.4016 21.26 86.4949 21.1667 86.5616 21.14C86.6416 21.1 86.7549 21.08 86.9016 21.08H88.6216C88.7549 21.08 88.8616 21.12 88.9416 21.2C89.0349 21.28 89.0749 21.38 89.0616 21.5C89.0482 21.7133 88.9349 21.9733 88.7216 22.28C88.5216 22.5867 88.2282 22.8867 87.8416 23.18C87.4549 23.4733 86.9682 23.72 86.3816 23.92C85.8082 24.1067 85.1482 24.2 84.4016 24.2ZM82.2016 17.9H86.6216V17.84C86.6216 17.32 86.5349 16.8667 86.3616 16.48C86.1882 16.0933 85.9349 15.7867 85.6016 15.56C85.2682 15.3333 84.8682 15.22 84.4016 15.22C83.9349 15.22 83.5349 15.3333 83.2016 15.56C82.8682 15.7867 82.6149 16.0933 82.4416 16.48C82.2816 16.8667 82.2016 17.32 82.2016 17.84V17.9ZM91.8245 24C91.6912 24 91.5779 23.9533 91.4845 23.86C91.3912 23.7667 91.3445 23.6533 91.3445 23.52V21.54C91.3445 21.3933 91.3912 21.2733 91.4845 21.18C91.5779 21.0867 91.6912 21.04 91.8245 21.04H93.8245C93.9579 21.04 94.0712 21.0867 94.1645 21.18C94.2579 21.2733 94.3045 21.3933 94.3045 21.54V23.52C94.3045 23.6533 94.2579 23.7667 94.1645 23.86C94.0712 23.9533 93.9579 24 93.8245 24H91.8245Z" fill="white"/>
<defs>
<linearGradient id="paint0_linear_1_525" x1="12.635" y1="-7.01058" x2="24.7269" y2="44.4251" gradientUnits="userSpaceOnUse">
<stop stop-color="#2F79CB"/>
<stop offset="1" stop-color="#AF51C5"/>
</linearGradient>
<linearGradient id="paint1_linear_1_525" x1="6.10596" y1="-1.29675" x2="6.63938" y2="4.92848" gradientUnits="userSpaceOnUse">
<stop stop-color="#2F79CB"/>
<stop offset="1" stop-color="#AF51C5"/>
</linearGradient>
<linearGradient id="paint2_linear_1_525" x1="0.974391" y1="-0.126396" x2="8.80649" y2="12.0361" gradientUnits="userSpaceOnUse">
<stop stop-color="#2F79CB"/>
<stop offset="1" stop-color="#AF51C5"/>
</linearGradient>
<linearGradient id="paint3_linear_1_525" x1="25.2987" y1="29.9699" x2="25.8323" y2="36.1961" gradientUnits="userSpaceOnUse">
<stop stop-color="#2F79CB"/>
<stop offset="1" stop-color="#AF51C5"/>
</linearGradient>
<linearGradient id="paint4_linear_1_525" x1="32.2401" y1="19.0683" x2="40.0835" y2="31.2238" gradientUnits="userSpaceOnUse">
<stop stop-color="#2F79CB"/>
<stop offset="1" stop-color="#AF51C5"/>
</linearGradient>
<linearGradient id="paint5_linear_1_525" x1="32.24" y1="-0.125345" x2="40.0799" y2="12.0281" gradientUnits="userSpaceOnUse">
<stop stop-color="#2F79CB"/>
<stop offset="1" stop-color="#AF51C5"/>
</linearGradient>
<linearGradient id="paint6_linear_1_525" x1="25.2994" y1="-1.29722" x2="25.8328" y2="4.92934" gradientUnits="userSpaceOnUse">
<stop stop-color="#2F79CB"/>
<stop offset="1" stop-color="#AF51C5"/>
</linearGradient>
<linearGradient id="paint7_linear_1_525" x1="6.10404" y1="29.9696" x2="6.63753" y2="36.1964" gradientUnits="userSpaceOnUse">
<stop stop-color="#2F79CB"/>
<stop offset="1" stop-color="#AF51C5"/>
</linearGradient>
<linearGradient id="paint8_linear_1_525" x1="0.972991" y1="19.0699" x2="8.81281" y2="31.2235" gradientUnits="userSpaceOnUse">
<stop stop-color="#2F79CB"/>
<stop offset="1" stop-color="#AF51C5"/>
</linearGradient>
</defs>
</svg>
